<svg width="208" height="40" viewBox="0 0 208 40" fill="none" xmlns="http://www.w3.org/2000/svg">
<rect width="208" height="40" rx="4" fill="white"/>
<rect x="8" y="8" width="24" height="24" rx="4" fill="#6941C6"/>
<path fill-rule="evenodd" clip-rule="evenodd" d="M14.6667 14.5C14.5746 14.5 14.5 14.5746 14.5 14.6667V18C14.5 18.092 14.5746 18.1667 14.6667 18.1667H18C18.092 18.1667 18.1667 18.092 18.1667 18V14.6667C18.1667 14.5746 18.092 14.5 18 14.5H14.6667ZM13.5 14.6667C13.5 14.0223 14.0223 13.5 14.6667 13.5H18C18.6443 13.5 19.1667 14.0223 19.1667 14.6667V18C19.1667 18.6443 18.6443 19.1667 18 19.1667H14.6667C14.0223 19.1667 13.5 18.6443 13.5 18V14.6667ZM22 14.5C21.908 14.5 21.8333 14.5746 21.8333 14.6667V18C21.8333 18.092 21.908 18.1667 22 18.1667H25.3333C25.4254 18.1667 25.5 18.092 25.5 18V14.6667C25.5 14.5746 25.4254 14.5 25.3333 14.5H22ZM20.8333 14.6667C20.8333 14.0223 21.3557 13.5 22 13.5H25.3333C25.9777 13.5 26.5 14.0223 26.5 14.6667V18C26.5 18.6443 25.9777 19.1667 25.3333 19.1667H22C21.3557 19.1667 20.8333 18.6443 20.8333 18V14.6667ZM14.6667 21.8333C14.5746 21.8333 14.5 21.908 14.5 22V25.3333C14.5 25.4254 14.5746 25.5 14.6667 25.5H18C18.092 25.5 18.1667 25.4254 18.1667 25.3333V22C18.1667 21.908 18.092 21.8333 18 21.8333H14.6667ZM13.5 22C13.5 21.3557 14.0223 20.8333 14.6667 20.8333H18C18.6443 20.8333 19.1667 21.3557 19.1667 22V25.3333C19.1667 25.9777 18.6443 26.5 18 26.5H14.6667C14.0223 26.5 13.5 25.9777 13.5 25.3333V22ZM22 21.8333C21.908 21.8333 21.8333 21.908 21.8333 22V25.3333C21.8333 25.4254 21.908 25.5 22 25.5H25.3333C25.4254 25.5 25.5 25.4254 25.5 25.3333V22C25.5 21.908 25.4254 21.8333 25.3333 21.8333H22ZM20.8333 22C20.8333 21.3557 21.3557 20.8333 22 20.8333H25.3333C25.9777 20.8333 26.5 21.3557 26.5 22V25.3333C26.5 25.9777 25.9777 26.5 25.3333 26.5H22C21.3557 26.5 20.8333 25.9777 20.8333 25.3333V22Z" fill="white"/>
<path d="M14.5 14.6667C14.5 14.5746 14.5746 14.5 14.6667 14.5H18C18.092 14.5 18.1667 14.5746 18.1667 14.6667V18C18.1667 18.092 18.092 18.1667 18 18.1667H14.6667C14.5746 18.1667 14.5 18.092 14.5 18V14.6667Z" fill="white"/>
<path d="M21.8333 14.6667C21.8333 14.5746 21.908 14.5 22 14.5H25.3333C25.4254 14.5 25.5 14.5746 25.5 14.6667V18C25.5 18.092 25.4254 18.1667 25.3333 18.1667H22C21.908 18.1667 21.8333 18.092 21.8333 18V14.6667Z" fill="white"/>
<path d="M14.5 22C14.5 21.908 14.5746 21.8333 14.6667 21.8333H18C18.092 21.8333 18.1667 21.908 18.1667 22V25.3333C18.1667 25.4254 18.092 25.5 18 25.5H14.6667C14.5746 25.5 14.5 25.4254 14.5 25.3333V22Z" fill="white"/>
<path d="M21.8333 22C21.8333 21.908 21.908 21.8333 22 21.8333H25.3333C25.4254 21.8333 25.5 21.908 25.5 22V25.3333C25.5 25.4254 25.4254 25.5 25.3333 25.5H22C21.908 25.5 21.8333 25.4254 21.8333 25.3333V22Z" fill="white"/>
<path d="M51.5455 20.1818C51.5455 21.4356 51.3106 22.5095 50.8409 23.4034C50.375 24.2936 49.7386 24.9754 48.9318 25.4489C48.1288 25.9223 47.2178 26.1591 46.1989 26.1591C45.1799 26.1591 44.267 25.9223 43.4602 25.4489C42.6572 24.9716 42.0208 24.2879 41.5511 23.3977C41.0852 22.5038 40.8523 21.4318 40.8523 20.1818C40.8523 18.928 41.0852 17.8561 41.5511 16.9659C42.0208 16.072 42.6572 15.3883 43.4602 14.9148C44.267 14.4413 45.1799 14.2045 46.1989 14.2045C47.2178 14.2045 48.1288 14.4413 48.9318 14.9148C49.7386 15.3883 50.375 16.072 50.8409 16.9659C51.3106 17.8561 51.5455 18.928 51.5455 20.1818ZM49.4261 20.1818C49.4261 19.2992 49.2879 18.5549 49.0114 17.9489C48.7386 17.339 48.3598 16.8788 47.875 16.5682C47.3902 16.2538 46.8314 16.0966 46.1989 16.0966C45.5663 16.0966 45.0076 16.2538 44.5227 16.5682C44.0379 16.8788 43.6572 17.339 43.3807 17.9489C43.108 18.5549 42.9716 19.2992 42.9716 20.1818C42.9716 21.0644 43.108 21.8106 43.3807 22.4205C43.6572 23.0265 44.0379 23.4867 44.5227 23.8011C45.0076 24.1117 45.5663 24.267 46.1989 24.267C46.8314 24.267 47.3902 24.1117 47.875 23.8011C48.3598 23.4867 48.7386 23.0265 49.0114 22.4205C49.2879 21.8106 49.4261 21.0644 49.4261 20.1818ZM61.2429 17.2727L58.1349 26H55.8622L52.7543 17.2727H54.9474L56.9531 23.7557H57.044L59.0554 17.2727H61.2429ZM66.233 26.1705C65.358 26.1705 64.6023 25.9886 63.9659 25.625C63.3333 25.2576 62.8466 24.7386 62.5057 24.0682C62.1648 23.3939 61.9943 22.6004 61.9943 21.6875C61.9943 20.7898 62.1648 20.0019 62.5057 19.3239C62.8504 18.642 63.3314 18.1117 63.9489 17.733C64.5663 17.3504 65.2917 17.1591 66.125 17.1591C66.6629 17.1591 67.1705 17.2462 67.6477 17.4205C68.1288 17.5909 68.553 17.8561 68.9205 18.2159C69.2917 18.5758 69.5833 19.0341 69.7955 19.5909C70.0076 20.1439 70.1136 20.803 70.1136 21.5682V22.1989H62.9602V20.8125H68.142C68.1383 20.4186 68.053 20.0682 67.8864 19.7614C67.7197 19.4508 67.4867 19.2064 67.1875 19.0284C66.892 18.8504 66.5473 18.7614 66.1534 18.7614C65.733 18.7614 65.3636 18.8636 65.0455 19.0682C64.7273 19.2689 64.4792 19.5341 64.3011 19.8636C64.1269 20.1894 64.0379 20.5473 64.0341 20.9375V22.1477C64.0341 22.6553 64.1269 23.0909 64.3125 23.4545C64.4981 23.8144 64.7576 24.0909 65.0909 24.2841C65.4242 24.4735 65.8144 24.5682 66.2614 24.5682C66.5606 24.5682 66.8314 24.5265 67.0739 24.4432C67.3163 24.3561 67.5265 24.2292 67.7045 24.0625C67.8826 23.8958 68.017 23.6894 68.108 23.4432L70.0284 23.6591C69.9072 24.1667 69.6761 24.6098 69.3352 24.9886C68.9981 25.3636 68.5663 25.6553 68.0398 25.8636C67.5133 26.0682 66.911 26.1705 66.233 26.1705ZM71.8537 26V17.2727H73.848V18.7273H73.9389C74.098 18.2235 74.3707 17.8352 74.7571 17.5625C75.1473 17.286 75.5923 17.1477 76.0923 17.1477C76.206 17.1477 76.3329 17.1534 76.473 17.1648C76.617 17.1723 76.7363 17.1856 76.831 17.2045V19.0966C76.7438 19.0663 76.6056 19.0398 76.4162 19.017C76.2306 18.9905 76.0507 18.9773 75.8764 18.9773C75.5014 18.9773 75.1643 19.0587 74.8651 19.2216C74.5696 19.3807 74.3366 19.6023 74.1662 19.8864C73.9957 20.1705 73.9105 20.4981 73.9105 20.8693V26H71.8537ZM86.2585 17.2727L83.1506 26H80.8778L77.7699 17.2727H79.9631L81.9688 23.7557H82.0597L84.071 17.2727H86.2585ZM87.6818 26V17.2727H89.7386V26H87.6818ZM88.7159 16.0341C88.3902 16.0341 88.1098 15.9261 87.875 15.7102C87.6402 15.4905 87.5227 15.2273 87.5227 14.9205C87.5227 14.6098 87.6402 14.3466 87.875 14.1307C88.1098 13.911 88.3902 13.8011 88.7159 13.8011C89.0455 13.8011 89.3258 13.911 89.5568 14.1307C89.7917 14.3466 89.9091 14.6098 89.9091 14.9205C89.9091 15.2273 89.7917 15.4905 89.5568 15.7102C89.3258 15.9261 89.0455 16.0341 88.7159 16.0341ZM95.7173 26.1705C94.8423 26.1705 94.0866 25.9886 93.4503 25.625C92.8177 25.2576 92.331 24.7386 91.9901 24.0682C91.6491 23.3939 91.4787 22.6004 91.4787 21.6875C91.4787 20.7898 91.6491 20.0019 91.9901 19.3239C92.3348 18.642 92.8158 18.1117 93.4332 17.733C94.0507 17.3504 94.776 17.1591 95.6094 17.1591C96.1473 17.1591 96.6548 17.2462 97.1321 17.4205C97.6132 17.5909 98.0374 17.8561 98.4048 18.2159C98.776 18.5758 99.0677 19.0341 99.2798 19.5909C99.492 20.1439 99.598 20.803 99.598 21.5682V22.1989H92.4446V20.8125H97.6264C97.6226 20.4186 97.5374 20.0682 97.3707 19.7614C97.2041 19.4508 96.9711 19.2064 96.6719 19.0284C96.3764 18.8504 96.0317 18.7614 95.6378 18.7614C95.2173 18.7614 94.848 18.8636 94.5298 19.0682C94.2116 19.2689 93.9635 19.5341 93.7855 19.8636C93.6113 20.1894 93.5223 20.5473 93.5185 20.9375V22.1477C93.5185 22.6553 93.6113 23.0909 93.7969 23.4545C93.9825 23.8144 94.242 24.0909 94.5753 24.2841C94.9086 24.4735 95.2988 24.5682 95.7457 24.5682C96.045 24.5682 96.3158 24.5265 96.5582 24.4432C96.8007 24.3561 97.0109 24.2292 97.1889 24.0625C97.367 23.8958 97.5014 23.6894 97.5923 23.4432L99.5128 23.6591C99.3916 24.1667 99.1605 24.6098 98.8196 24.9886C98.4825 25.3636 98.0507 25.6553 97.5241 25.8636C96.9976 26.0682 96.3954 26.1705 95.7173 26.1705ZM103.092 26L100.626 17.2727H102.723L104.257 23.4091H104.337L105.905 17.2727H107.979L109.547 23.375H109.632L111.143 17.2727H113.246L110.774 26H108.632L106.996 20.1023H106.876L105.24 26H103.092Z" fill="#6941C6"/>
</svg>
