<svg width="16" height="16" viewBox="0 0 16 16" fill="none" xmlns="http://www.w3.org/2000/svg">
<path fill-rule="evenodd" clip-rule="evenodd" d="M2.66667 2.5C2.57462 2.5 2.5 2.57462 2.5 2.66667V6C2.5 6.09205 2.57462 6.16667 2.66667 6.16667H6C6.09205 6.16667 6.16667 6.09205 6.16667 6V2.66667C6.16667 2.57462 6.09205 2.5 6 2.5H2.66667ZM1.5 2.66667C1.5 2.02233 2.02233 1.5 2.66667 1.5H6C6.64433 1.5 7.16667 2.02233 7.16667 2.66667V6C7.16667 6.64433 6.64433 7.16667 6 7.16667H2.66667C2.02233 7.16667 1.5 6.64433 1.5 6V2.66667ZM10 2.5C9.90795 2.5 9.83333 2.57462 9.83333 2.66667V6C9.83333 6.09205 9.90795 6.16667 10 6.16667H13.3333C13.4254 6.16667 13.5 6.09205 13.5 6V2.66667C13.5 2.57462 13.4254 2.5 13.3333 2.5H10ZM8.83333 2.66667C8.83333 2.02233 9.35567 1.5 10 1.5H13.3333C13.9777 1.5 14.5 2.02233 14.5 2.66667V6C14.5 6.64433 13.9777 7.16667 13.3333 7.16667H10C9.35567 7.16667 8.83333 6.64433 8.83333 6V2.66667ZM2.66667 9.83333C2.57462 9.83333 2.5 9.90795 2.5 10V13.3333C2.5 13.4254 2.57462 13.5 2.66667 13.5H6C6.09205 13.5 6.16667 13.4254 6.16667 13.3333V10C6.16667 9.90795 6.09205 9.83333 6 9.83333H2.66667ZM1.5 10C1.5 9.35567 2.02233 8.83333 2.66667 8.83333H6C6.64433 8.83333 7.16667 9.35567 7.16667 10V13.3333C7.16667 13.9777 6.64433 14.5 6 14.5H2.66667C2.02233 14.5 1.5 13.9777 1.5 13.3333V10ZM10 9.83333C9.90795 9.83333 9.83333 9.90795 9.83333 10V13.3333C9.83333 13.4254 9.90795 13.5 10 13.5H13.3333C13.4254 13.5 13.5 13.4254 13.5 13.3333V10C13.5 9.90795 13.4254 9.83333 13.3333 9.83333H10ZM8.83333 10C8.83333 9.35567 9.35567 8.83333 10 8.83333H13.3333C13.9777 8.83333 14.5 9.35567 14.5 10V13.3333C14.5 13.9777 13.9777 14.5 13.3333 14.5H10C9.35567 14.5 8.83333 13.9777 8.83333 13.3333V10Z" fill="white"/>
<path d="M2.5 2.66667C2.5 2.57462 2.57462 2.5 2.66667 2.5H6C6.09205 2.5 6.16667 2.57462 6.16667 2.66667V6C6.16667 6.09205 6.09205 6.16667 6 6.16667H2.66667C2.57462 6.16667 2.5 6.09205 2.5 6V2.66667Z" fill="white"/>
<path d="M9.83333 2.66667C9.83333 2.57462 9.90795 2.5 10 2.5H13.3333C13.4254 2.5 13.5 2.57462 13.5 2.66667V6C13.5 6.09205 13.4254 6.16667 13.3333 6.16667H10C9.90795 6.16667 9.83333 6.09205 9.83333 6V2.66667Z" fill="white"/>
<path d="M2.5 10C2.5 9.90795 2.57462 9.83333 2.66667 9.83333H6C6.09205 9.83333 6.16667 9.90795 6.16667 10V13.3333C6.16667 13.4254 6.09205 13.5 6 13.5H2.66667C2.57462 13.5 2.5 13.4254 2.5 13.3333V10Z" fill="white"/>
<path d="M9.83333 10C9.83333 9.90795 9.90795 9.83333 10 9.83333H13.3333C13.4254 9.83333 13.5 9.90795 13.5 10V13.3333C13.5 13.4254 13.4254 13.5 13.3333 13.5H10C9.90795 13.5 9.83333 13.4254 9.83333 13.3333V10Z" fill="white"/>
</svg>
