<svg width="162" height="24" viewBox="0 0 162 24" fill="none" xmlns="http://www.w3.org/2000/svg">
<path d="M20 0H4C1.79086 0 0 1.79086 0 4V20C0 22.2091 1.79086 24 4 24H20C22.2091 24 24 22.2091 24 20V4C24 1.79086 22.2091 0 20 0Z" fill="#1E1E1E"/>
<path fill-rule="evenodd" clip-rule="evenodd" d="M6.66667 6.5C6.57462 6.5 6.5 6.57462 6.5 6.66667V10C6.5 10.092 6.57462 10.1667 6.66667 10.1667H10C10.092 10.1667 10.1667 10.092 10.1667 10V6.66667C10.1667 6.57462 10.092 6.5 10 6.5H6.66667ZM5.5 6.66667C5.5 6.02233 6.02233 5.5 6.66667 5.5H10C10.6443 5.5 11.1667 6.02233 11.1667 6.66667V10C11.1667 10.6443 10.6443 11.1667 10 11.1667H6.66667C6.02233 11.1667 5.5 10.6443 5.5 10V6.66667ZM14 6.5C13.908 6.5 13.8333 6.57462 13.8333 6.66667V10C13.8333 10.092 13.908 10.1667 14 10.1667H17.3333C17.4254 10.1667 17.5 10.092 17.5 10V6.66667C17.5 6.57462 17.4254 6.5 17.3333 6.5H14ZM12.8333 6.66667C12.8333 6.02233 13.3557 5.5 14 5.5H17.3333C17.9777 5.5 18.5 6.02233 18.5 6.66667V10C18.5 10.6443 17.9777 11.1667 17.3333 11.1667H14C13.3557 11.1667 12.8333 10.6443 12.8333 10V6.66667ZM6.66667 13.8333C6.57462 13.8333 6.5 13.908 6.5 14V17.3333C6.5 17.4254 6.57462 17.5 6.66667 17.5H10C10.092 17.5 10.1667 17.4254 10.1667 17.3333V14C10.1667 13.908 10.092 13.8333 10 13.8333H6.66667ZM5.5 14C5.5 13.3557 6.02233 12.8333 6.66667 12.8333H10C10.6443 12.8333 11.1667 13.3557 11.1667 14V17.3333C11.1667 17.9777 10.6443 18.5 10 18.5H6.66667C6.02233 18.5 5.5 17.9777 5.5 17.3333V14ZM14 13.8333C13.908 13.8333 13.8333 13.908 13.8333 14V17.3333C13.8333 17.4254 13.908 17.5 14 17.5H17.3333C17.4254 17.5 17.5 17.4254 17.5 17.3333V14C17.5 13.908 17.4254 13.8333 17.3333 13.8333H14ZM12.8333 14C12.8333 13.3557 13.3557 12.8333 14 12.8333H17.3333C17.9777 12.8333 18.5 13.3557 18.5 14V17.3333C18.5 17.9777 17.9777 18.5 17.3333 18.5H14C13.3557 18.5 12.8333 17.9777 12.8333 17.3333V14Z" fill="white"/>
<path d="M6.5 6.66667C6.5 6.57462 6.57462 6.5 6.66667 6.5H10C10.092 6.5 10.1667 6.57462 10.1667 6.66667V10C10.1667 10.092 10.092 10.1667 10 10.1667H6.66667C6.57462 10.1667 6.5 10.092 6.5 10V6.66667Z" fill="white"/>
<path d="M13.8333 6.66667C13.8333 6.57462 13.908 6.5 14 6.5H17.3333C17.4254 6.5 17.5 6.57462 17.5 6.66667V10C17.5 10.092 17.4254 10.1667 17.3333 10.1667H14C13.908 10.1667 13.8333 10.092 13.8333 10V6.66667Z" fill="white"/>
<path d="M6.5 14C6.5 13.908 6.57462 13.8333 6.66667 13.8333H10C10.092 13.8333 10.1667 13.908 10.1667 14V17.3333C10.1667 17.4254 10.092 17.5 10 17.5H6.66667C6.57462 17.5 6.5 17.4254 6.5 17.3333V14Z" fill="white"/>
<path d="M13.8333 14C13.8333 13.908 13.908 13.8333 14 13.8333H17.3333C17.4254 13.8333 17.5 13.908 17.5 14V17.3333C17.5 17.4254 17.4254 17.5 17.3333 17.5H14C13.908 17.5 13.8333 17.4254 13.8333 17.3333V14Z" fill="white"/>
<path d="M33.1477 18V6.36365H37.5114C38.4053 6.36365 39.1553 6.53031 39.7614 6.86365C40.3712 7.19698 40.8314 7.65531 41.142 8.23865C41.4564 8.81819 41.6136 9.47728 41.6136 10.2159C41.6136 10.9621 41.4564 11.625 41.142 12.2045C40.8277 12.7841 40.3636 13.2405 39.75 13.5739C39.1364 13.9034 38.3807 14.0682 37.483 14.0682H34.5909V12.3352H37.1989C37.7216 12.3352 38.1496 12.2443 38.483 12.0625C38.8163 11.8807 39.0625 11.6307 39.2216 11.3125C39.3845 10.9943 39.4659 10.6288 39.4659 10.2159C39.4659 9.80304 39.3845 9.4394 39.2216 9.12501C39.0625 8.81062 38.8144 8.5663 38.4773 8.39206C38.1439 8.21403 37.714 8.12501 37.1875 8.12501H35.2557V18H33.1477ZM47.0923 18.1705C46.2173 18.1705 45.4616 17.9886 44.8253 17.625C44.1927 17.2576 43.706 16.7386 43.3651 16.0682C43.0241 15.3939 42.8537 14.6004 42.8537 13.6875C42.8537 12.7898 43.0241 12.0019 43.3651 11.3239C43.7098 10.642 44.1908 10.1117 44.8082 9.73296C45.4257 9.35039 46.151 9.1591 46.9844 9.1591C47.5223 9.1591 48.0298 9.24622 48.5071 9.42046C48.9882 9.59092 49.4124 9.85607 49.7798 10.2159C50.151 10.5758 50.4427 11.0341 50.6548 11.5909C50.867 12.1439 50.973 12.803 50.973 13.5682V14.1989H43.8196V12.8125H49.0014C48.9976 12.4186 48.9124 12.0682 48.7457 11.7614C48.5791 11.4508 48.3461 11.2064 48.0469 11.0284C47.7514 10.8504 47.4067 10.7614 47.0128 10.7614C46.5923 10.7614 46.223 10.8636 45.9048 11.0682C45.5866 11.2689 45.3385 11.5341 45.1605 11.8636C44.9863 12.1894 44.8973 12.5473 44.8935 12.9375V14.1477C44.8935 14.6553 44.9863 15.0909 45.1719 15.4545C45.3575 15.8144 45.617 16.0909 45.9503 16.2841C46.2836 16.4735 46.6738 16.5682 47.1207 16.5682C47.42 16.5682 47.6908 16.5265 47.9332 16.4432C48.1757 16.3561 48.3859 16.2292 48.5639 16.0625C48.742 15.8958 48.8764 15.6894 48.9673 15.4432L50.8878 15.6591C50.7666 16.1667 50.5355 16.6098 50.1946 16.9886C49.8575 17.3636 49.4257 17.6553 48.8991 17.8636C48.3726 18.0682 47.7704 18.1705 47.0923 18.1705ZM56.5199 18.1705C55.6676 18.1705 54.929 17.983 54.304 17.608C53.679 17.233 53.1941 16.7083 52.8494 16.0341C52.5085 15.3598 52.3381 14.572 52.3381 13.6705C52.3381 12.7689 52.5085 11.9792 52.8494 11.3011C53.1941 10.6231 53.679 10.0966 54.304 9.7216C54.929 9.3466 55.6676 9.1591 56.5199 9.1591C57.3722 9.1591 58.1108 9.3466 58.7358 9.7216C59.3608 10.0966 59.8438 10.6231 60.1847 11.3011C60.5294 11.9792 60.7017 12.7689 60.7017 13.6705C60.7017 14.572 60.5294 15.3598 60.1847 16.0341C59.8438 16.7083 59.3608 17.233 58.7358 17.608C58.1108 17.983 57.3722 18.1705 56.5199 18.1705ZM56.5312 16.5227C56.9934 16.5227 57.3797 16.3958 57.6903 16.142C58.0009 15.8845 58.232 15.5398 58.3835 15.108C58.5388 14.6761 58.6165 14.1951 58.6165 13.6648C58.6165 13.1307 58.5388 12.6477 58.3835 12.2159C58.232 11.7803 58.0009 11.4337 57.6903 11.1761C57.3797 10.9186 56.9934 10.7898 56.5312 10.7898C56.0578 10.7898 55.6638 10.9186 55.3494 11.1761C55.0388 11.4337 54.8059 11.7803 54.6506 12.2159C54.4991 12.6477 54.4233 13.1307 54.4233 13.6648C54.4233 14.1951 54.4991 14.6761 54.6506 15.108C54.8059 15.5398 55.0388 15.8845 55.3494 16.142C55.6638 16.3958 56.0578 16.5227 56.5312 16.5227ZM62.4474 21.2727V9.27274H64.4702V10.7159H64.5895C64.6955 10.5038 64.8452 10.2784 65.0384 10.0398C65.2315 9.79736 65.4929 9.59092 65.8224 9.42046C66.152 9.24622 66.5724 9.1591 67.0838 9.1591C67.758 9.1591 68.366 9.33145 68.9077 9.67615C69.4531 10.017 69.8849 10.5227 70.2031 11.1932C70.5251 11.8598 70.6861 12.678 70.6861 13.6477C70.6861 14.6061 70.5289 15.4205 70.2145 16.0909C69.9001 16.7614 69.4721 17.2727 68.9304 17.625C68.3887 17.9773 67.7751 18.1534 67.0895 18.1534C66.5895 18.1534 66.1747 18.0701 65.8452 17.9034C65.5156 17.7367 65.2505 17.536 65.0497 17.3011C64.8527 17.0625 64.6993 16.8371 64.5895 16.625H64.5043V21.2727H62.4474ZM64.4645 13.6364C64.4645 14.2008 64.544 14.6951 64.7031 15.1193C64.866 15.5436 65.099 15.875 65.402 16.1136C65.7088 16.3485 66.08 16.4659 66.5156 16.4659C66.9702 16.4659 67.3509 16.3447 67.6577 16.1023C67.9645 15.8561 68.1955 15.5208 68.3509 15.0966C68.5099 14.6686 68.5895 14.1818 68.5895 13.6364C68.5895 13.0947 68.5118 12.6136 68.3565 12.1932C68.2012 11.7727 67.9702 11.4432 67.6634 11.2045C67.3565 10.9659 66.974 10.8466 66.5156 10.8466C66.0762 10.8466 65.7031 10.9621 65.3963 11.1932C65.0895 11.4242 64.8565 11.7481 64.6974 12.1648C64.5421 12.5814 64.4645 13.072 64.4645 13.6364ZM74.5043 6.36365V18H72.4474V6.36365H74.5043ZM80.483 18.1705C79.608 18.1705 78.8523 17.9886 78.2159 17.625C77.5833 17.2576 77.0966 16.7386 76.7557 16.0682C76.4148 15.3939 76.2443 14.6004 76.2443 13.6875C76.2443 12.7898 76.4148 12.0019 76.7557 11.3239C77.1004 10.642 77.5814 10.1117 78.1989 9.73296C78.8163 9.35039 79.5417 9.1591 80.375 9.1591C80.9129 9.1591 81.4205 9.24622 81.8977 9.42046C82.3788 9.59092 82.803 9.85607 83.1705 10.2159C83.5417 10.5758 83.8333 11.0341 84.0455 11.5909C84.2576 12.1439 84.3636 12.803 84.3636 13.5682V14.1989H77.2102V12.8125H82.392C82.3883 12.4186 82.303 12.0682 82.1364 11.7614C81.9697 11.4508 81.7367 11.2064 81.4375 11.0284C81.142 10.8504 80.7973 10.7614 80.4034 10.7614C79.983 10.7614 79.6136 10.8636 79.2955 11.0682C78.9773 11.2689 78.7292 11.5341 78.5511 11.8636C78.3769 12.1894 78.2879 12.5473 78.2841 12.9375V14.1477C78.2841 14.6553 78.3769 15.0909 78.5625 15.4545C78.7481 15.8144 79.0076 16.0909 79.3409 16.2841C79.6742 16.4735 80.0644 16.5682 80.5114 16.5682C80.8106 16.5682 81.0814 16.5265 81.3239 16.4432C81.5663 16.3561 81.7765 16.2292 81.9545 16.0625C82.1326 15.8958 82.267 15.6894 82.358 15.4432L84.2784 15.6591C84.1572 16.1667 83.9261 16.6098 83.5852 16.9886C83.2481 17.3636 82.8163 17.6553 82.2898 17.8636C81.7633 18.0682 81.161 18.1705 80.483 18.1705ZM94.1065 18H90.1634V6.36365H94.1861C95.3414 6.36365 96.3338 6.5966 97.1634 7.06251C97.9967 7.52463 98.6368 8.1894 99.0838 9.05683C99.5308 9.92425 99.7543 10.9621 99.7543 12.1705C99.7543 13.3826 99.5289 14.4242 99.0781 15.2955C98.6312 16.1667 97.9853 16.8352 97.1406 17.3011C96.2997 17.767 95.2884 18 94.1065 18ZM92.2713 16.1761H94.0043C94.8149 16.1761 95.491 16.0284 96.0327 15.733C96.5743 15.4337 96.9815 14.9886 97.2543 14.3977C97.527 13.803 97.6634 13.0606 97.6634 12.1705C97.6634 11.2803 97.527 10.5417 97.2543 9.95456C96.9815 9.36365 96.5781 8.92236 96.044 8.63069C95.5137 8.33524 94.8546 8.18751 94.0668 8.18751H92.2713V16.1761ZM101.666 18V9.27274H103.723V18H101.666ZM102.7 8.0341C102.375 8.0341 102.094 7.92615 101.859 7.71024C101.625 7.49054 101.507 7.22728 101.507 6.92046C101.507 6.60986 101.625 6.3466 101.859 6.13069C102.094 5.91099 102.375 5.80115 102.7 5.80115C103.03 5.80115 103.31 5.91099 103.541 6.13069C103.776 6.3466 103.893 6.60986 103.893 6.92046C103.893 7.22728 103.776 7.49054 103.541 7.71024C103.31 7.92615 103.03 8.0341 102.7 8.0341ZM105.838 18V9.27274H107.832V10.7273H107.923C108.082 10.2235 108.355 9.83524 108.741 9.56251C109.132 9.28599 109.577 9.14774 110.077 9.14774C110.19 9.14774 110.317 9.15342 110.457 9.16478C110.601 9.17236 110.721 9.18562 110.815 9.20456V11.0966C110.728 11.0663 110.59 11.0398 110.401 11.017C110.215 10.9905 110.035 10.9773 109.861 10.9773C109.486 10.9773 109.149 11.0587 108.849 11.2216C108.554 11.3807 108.321 11.6023 108.151 11.8864C107.98 12.1705 107.895 12.4981 107.895 12.8693V18H105.838ZM115.686 18.1705C114.811 18.1705 114.055 17.9886 113.419 17.625C112.786 17.2576 112.3 16.7386 111.959 16.0682C111.618 15.3939 111.447 14.6004 111.447 13.6875C111.447 12.7898 111.618 12.0019 111.959 11.3239C112.304 10.642 112.785 10.1117 113.402 9.73296C114.019 9.35039 114.745 9.1591 115.578 9.1591C116.116 9.1591 116.624 9.24622 117.101 9.42046C117.582 9.59092 118.006 9.85607 118.374 10.2159C118.745 10.5758 119.036 11.0341 119.249 11.5909C119.461 12.1439 119.567 12.803 119.567 13.5682V14.1989H112.413V12.8125H117.595C117.591 12.4186 117.506 12.0682 117.339 11.7614C117.173 11.4508 116.94 11.2064 116.641 11.0284C116.345 10.8504 116 10.7614 115.607 10.7614C115.186 10.7614 114.817 10.8636 114.499 11.0682C114.18 11.2689 113.932 11.5341 113.754 11.8636C113.58 12.1894 113.491 12.5473 113.487 12.9375V14.1477C113.487 14.6553 113.58 15.0909 113.766 15.4545C113.951 15.8144 114.211 16.0909 114.544 16.2841C114.877 16.4735 115.268 16.5682 115.714 16.5682C116.014 16.5682 116.285 16.5265 116.527 16.4432C116.769 16.3561 116.98 16.2292 117.158 16.0625C117.336 15.8958 117.47 15.6894 117.561 15.4432L119.482 15.6591C119.36 16.1667 119.129 16.6098 118.788 16.9886C118.451 17.3636 118.019 17.6553 117.493 17.8636C116.966 18.0682 116.364 18.1705 115.686 18.1705ZM125.114 18.1705C124.242 18.1705 123.494 17.9792 122.869 17.5966C122.248 17.214 121.769 16.6856 121.432 16.0114C121.098 15.3333 120.932 14.553 120.932 13.6705C120.932 12.7841 121.102 12.0019 121.443 11.3239C121.784 10.642 122.265 10.1117 122.886 9.73296C123.511 9.35039 124.25 9.1591 125.102 9.1591C125.811 9.1591 126.438 9.28978 126.983 9.55115C127.532 9.80872 127.97 10.1742 128.295 10.6477C128.621 11.1174 128.807 11.6667 128.852 12.2955H126.886C126.807 11.875 126.617 11.5246 126.318 11.2443C126.023 10.9602 125.627 10.8182 125.131 10.8182C124.71 10.8182 124.341 10.9318 124.023 11.1591C123.705 11.3826 123.456 11.7045 123.278 12.125C123.104 12.5455 123.017 13.0492 123.017 13.6364C123.017 14.2311 123.104 14.7424 123.278 15.1705C123.453 15.5947 123.697 15.9223 124.011 16.1534C124.33 16.3807 124.703 16.4943 125.131 16.4943C125.434 16.4943 125.705 16.4375 125.943 16.3239C126.186 16.2064 126.388 16.0379 126.551 15.8182C126.714 15.5985 126.826 15.3314 126.886 15.017H128.852C128.803 15.6345 128.621 16.1818 128.307 16.6591C127.992 17.1326 127.564 17.5038 127.023 17.7727C126.481 18.0379 125.845 18.1705 125.114 18.1705ZM134.899 9.27274V10.8636H129.882V9.27274H134.899ZM131.121 7.18183H133.178V15.375C133.178 15.6515 133.219 15.8636 133.303 16.0114C133.39 16.1553 133.503 16.2538 133.643 16.3068C133.784 16.3598 133.939 16.3864 134.109 16.3864C134.238 16.3864 134.356 16.3769 134.462 16.358C134.571 16.339 134.655 16.322 134.712 16.3068L135.058 17.9148C134.948 17.9527 134.791 17.9943 134.587 18.0398C134.386 18.0852 134.14 18.1117 133.848 18.1193C133.333 18.1345 132.869 18.0568 132.456 17.8864C132.043 17.7121 131.715 17.4432 131.473 17.0795C131.234 16.7159 131.117 16.2614 131.121 15.7159V7.18183ZM140.332 18.1705C139.48 18.1705 138.741 17.983 138.116 17.608C137.491 17.233 137.007 16.7083 136.662 16.0341C136.321 15.3598 136.151 14.572 136.151 13.6705C136.151 12.7689 136.321 11.9792 136.662 11.3011C137.007 10.6231 137.491 10.0966 138.116 9.7216C138.741 9.3466 139.48 9.1591 140.332 9.1591C141.185 9.1591 141.923 9.3466 142.548 9.7216C143.173 10.0966 143.656 10.6231 143.997 11.3011C144.342 11.9792 144.514 12.7689 144.514 13.6705C144.514 14.572 144.342 15.3598 143.997 16.0341C143.656 16.7083 143.173 17.233 142.548 17.608C141.923 17.983 141.185 18.1705 140.332 18.1705ZM140.344 16.5227C140.806 16.5227 141.192 16.3958 141.503 16.142C141.813 15.8845 142.045 15.5398 142.196 15.108C142.351 14.6761 142.429 14.1951 142.429 13.6648C142.429 13.1307 142.351 12.6477 142.196 12.2159C142.045 11.7803 141.813 11.4337 141.503 11.1761C141.192 10.9186 140.806 10.7898 140.344 10.7898C139.87 10.7898 139.476 10.9186 139.162 11.1761C138.851 11.4337 138.618 11.7803 138.463 12.2159C138.312 12.6477 138.236 13.1307 138.236 13.6648C138.236 14.1951 138.312 14.6761 138.463 15.108C138.618 15.5398 138.851 15.8845 139.162 16.142C139.476 16.3958 139.87 16.5227 140.344 16.5227ZM146.26 18V9.27274H148.254V10.7273H148.345C148.504 10.2235 148.777 9.83524 149.163 9.56251C149.554 9.28599 149.999 9.14774 150.499 9.14774C150.612 9.14774 150.739 9.15342 150.879 9.16478C151.023 9.17236 151.143 9.18562 151.237 9.20456V11.0966C151.15 11.0663 151.012 11.0398 150.822 11.017C150.637 10.9905 150.457 10.9773 150.283 10.9773C149.908 10.9773 149.571 11.0587 149.271 11.2216C148.976 11.3807 148.743 11.6023 148.572 11.8864C148.402 12.1705 148.317 12.4981 148.317 12.8693V18H146.26ZM154.148 21.2727C153.867 21.2727 153.608 21.25 153.369 21.2045C153.134 21.1629 152.947 21.1136 152.807 21.0568L153.284 19.4545C153.583 19.5417 153.85 19.5833 154.085 19.5795C154.32 19.5758 154.527 19.5019 154.705 19.358C154.886 19.2178 155.04 18.983 155.165 18.6534L155.341 18.1818L152.176 9.27274H154.358L156.369 15.8636H156.46L158.477 9.27274H160.665L157.17 19.0568C157.008 19.5189 156.792 19.9148 156.523 20.2443C156.254 20.5777 155.924 20.8314 155.534 21.0057C155.148 21.1837 154.686 21.2727 154.148 21.2727Z" fill="#1E1E1E"/>
</svg>
