<svg width="21" height="20" viewBox="0 0 21 20" fill="none" xmlns="http://www.w3.org/2000/svg">
<path fill-rule="evenodd" clip-rule="evenodd" d="M8.12944 2.62944C7.90466 2.85422 7.79167 3.11993 7.79167 3.33333V4.375H13.2083V3.33333C13.2083 3.11993 13.0953 2.85422 12.8706 2.62944C12.6458 2.40466 12.3801 2.29166 12.1667 2.29166H8.83333C8.61994 2.29166 8.35423 2.40466 8.12944 2.62944ZM14.4583 4.375V3.33333C14.4583 2.71339 14.1547 2.14577 13.7544 1.74556C13.3542 1.34534 12.7866 1.04166 12.1667 1.04166H8.83333C8.2134 1.04166 7.64577 1.34534 7.24556 1.74556C6.84534 2.14577 6.54167 2.71339 6.54167 3.33333V4.375H3C2.65482 4.375 2.375 4.65482 2.375 5C2.375 5.34518 2.65482 5.625 3 5.625H4.04167V16.6667C4.04167 17.2866 4.34534 17.8542 4.74556 18.2544C5.14577 18.6547 5.7134 18.9583 6.33333 18.9583H14.6667C15.2866 18.9583 15.8542 18.6547 16.2544 18.2544C16.6547 17.8542 16.9583 17.2866 16.9583 16.6667V5.625H18C18.3452 5.625 18.625 5.34518 18.625 5C18.625 4.65482 18.3452 4.375 18 4.375H14.4583ZM5.29167 5.625V16.6667C5.29167 16.8801 5.40466 17.1458 5.62944 17.3706C5.85423 17.5953 6.11994 17.7083 6.33333 17.7083H14.6667C14.8801 17.7083 15.1458 17.5953 15.3706 17.3706C15.5953 17.1458 15.7083 16.8801 15.7083 16.6667V5.625H5.29167ZM8.83333 8.54166C9.17851 8.54166 9.45833 8.82149 9.45833 9.16667V14.1667C9.45833 14.5118 9.17851 14.7917 8.83333 14.7917C8.48816 14.7917 8.20833 14.5118 8.20833 14.1667V9.16667C8.20833 8.82149 8.48816 8.54166 8.83333 8.54166ZM12.1667 8.54166C12.5118 8.54166 12.7917 8.82149 12.7917 9.16667V14.1667C12.7917 14.5118 12.5118 14.7917 12.1667 14.7917C11.8215 14.7917 11.5417 14.5118 11.5417 14.1667V9.16667C11.5417 8.82149 11.8215 8.54166 12.1667 8.54166Z" fill="black"/>
</svg>
