<svg width="21" height="20" viewBox="0 0 21 20" fill="none" xmlns="http://www.w3.org/2000/svg">
<path fill-rule="evenodd" clip-rule="evenodd" d="M10.4976 1.875L10.5 1.87499C12.107 1.875 13.6779 2.35152 15.014 3.24431C16.3502 4.13709 17.3916 5.40604 18.0065 6.89069C18.6215 8.37534 18.7824 10.009 18.4689 11.5851C18.1554 13.1612 17.3815 14.6089 16.2452 15.7452C15.1089 16.8815 13.6612 17.6554 12.0851 17.9689C10.509 18.2824 8.87535 18.1215 7.3907 17.5065C5.90605 16.8916 4.6371 15.8502 3.74431 14.514C2.85152 13.1779 2.375 11.607 2.375 10C2.375 9.65482 2.65482 9.375 3 9.375C3.34518 9.375 3.625 9.65482 3.625 10C3.625 11.3597 4.02821 12.689 4.78365 13.8195C5.53908 14.9501 6.61281 15.8313 7.86905 16.3517C9.12529 16.872 10.5076 17.0082 11.8412 16.7429C13.1749 16.4776 14.3999 15.8228 15.3614 14.8614C16.3228 13.8999 16.9776 12.6749 17.2429 11.3412C17.5082 10.0076 17.372 8.62529 16.8517 7.36905C16.3313 6.11281 15.4501 5.03908 14.3195 4.28364C13.1893 3.52843 11.8605 3.12523 10.5012 3.125C8.5679 3.13257 6.71228 3.8864 5.32145 5.22909L4.50888 6.04166H7.16667C7.51184 6.04166 7.79167 6.32149 7.79167 6.66666C7.79167 7.01184 7.51184 7.29166 7.16667 7.29166H3C2.65482 7.29166 2.375 7.01184 2.375 6.66666V2.5C2.375 2.15482 2.65482 1.875 3 1.875C3.34518 1.875 3.625 2.15482 3.625 2.5V5.15778L4.44139 4.34139L4.44893 4.33398C6.07236 2.76456 8.23966 1.8835 10.4976 1.875Z" fill="black"/>
</svg>
