<svg width="17" height="16" viewBox="0 0 17 16" fill="none" xmlns="http://www.w3.org/2000/svg">
<path fill-rule="evenodd" clip-rule="evenodd" d="M4.14645 3.64645C4.34171 3.45118 4.65829 3.45118 4.85355 3.64645L8.5 7.29289L12.1464 3.64645C12.3417 3.45118 12.6583 3.45118 12.8536 3.64645C13.0488 3.84171 13.0488 4.15829 12.8536 4.35355L9.20711 8L12.8536 11.6464C13.0488 11.8417 13.0488 12.1583 12.8536 12.3536C12.6583 12.5488 12.3417 12.5488 12.1464 12.3536L8.5 8.70711L4.85355 12.3536C4.65829 12.5488 4.34171 12.5488 4.14645 12.3536C3.95118 12.1583 3.95118 11.8417 4.14645 11.6464L7.79289 8L4.14645 4.35355C3.95118 4.15829 3.95118 3.84171 4.14645 3.64645Z" fill="#475569"/>
</svg>
